<svg width="31" height="12" viewBox="0 0 31 12" fill="none" xmlns="http://www.w3.org/2000/svg">
<path d="M0.744 9V0.599999H1.86L3.528 5.724L5.196 0.599999H6.312V9H5.196V4.008L4.08 7.428H2.976L1.86 4.008V9H0.744ZM8.41069 12C8.16269 12 7.95469 11.916 7.78669 11.748C7.61869 11.58 7.53469 11.372 7.53469 11.124V9.816L8.66269 10.08V10.44C8.66269 10.552 8.70669 10.652 8.79469 10.74C8.88269 10.828 8.98269 10.872 9.09469 10.872H9.35869C9.47069 10.872 9.57069 10.828 9.65869 10.74C9.74669 10.652 9.79069 10.552 9.79069 10.44V9H8.41069C8.16269 9 7.95469 8.916 7.78669 8.748C7.61869 8.58 7.53469 8.372 7.53469 8.124V3H8.66269V7.44C8.66269 7.552 8.70669 7.652 8.79469 7.74C8.88269 7.828 8.98269 7.872 9.09469 7.872H9.79069V3H10.9187V11.124C10.9187 11.372 10.8347 11.58 10.6667 11.748C10.4987 11.916 10.2947 12 10.0547 12H8.41069Z" fill="#734CE9"/>
<path d="M13.7663 9V1.716H12.0983V0.599999H16.5503V1.716H14.8823V9H13.7663ZM17.1646 9C16.9246 9 16.7166 8.916 16.5406 8.748C16.3726 8.572 16.2886 8.364 16.2886 8.124V3.864C16.2886 3.624 16.3726 3.42 16.5406 3.252C16.7166 3.084 16.9246 3 17.1646 3H18.7966C19.0446 3 19.2526 3.084 19.4206 3.252C19.5886 3.42 19.6726 3.624 19.6726 3.864V5.688C19.6726 5.928 19.5886 6.136 19.4206 6.312C19.2526 6.48 19.0446 6.564 18.7966 6.564H17.4166V7.44C17.4166 7.56 17.4566 7.664 17.5366 7.752C17.6246 7.832 17.7326 7.872 17.8606 7.872H19.4206L19.6726 9H17.1646ZM17.4166 5.436H18.1126C18.2326 5.436 18.3326 5.396 18.4126 5.316C18.5006 5.228 18.5446 5.124 18.5446 5.004V4.56C18.5446 4.44 18.5006 4.34 18.4126 4.26C18.3326 4.172 18.2326 4.128 18.1126 4.128H17.8606C17.7326 4.128 17.6246 4.172 17.5366 4.26C17.4566 4.34 17.4166 4.44 17.4166 4.56V5.436ZM21.2659 9C21.0259 9 20.8219 8.916 20.6539 8.748C20.4859 8.572 20.4019 8.364 20.4019 8.124V7.128H21.5179V7.44C21.5179 7.56 21.5619 7.664 21.6499 7.752C21.7379 7.832 21.8419 7.872 21.9619 7.872H22.2139C22.3339 7.872 22.4339 7.832 22.5139 7.752C22.6019 7.664 22.6459 7.56 22.6459 7.44V6.996C22.6459 6.876 22.6019 6.776 22.5139 6.696C22.4339 6.608 22.3339 6.564 22.2139 6.564H21.2659C21.0259 6.564 20.8219 6.48 20.6539 6.312C20.4859 6.136 20.4019 5.928 20.4019 5.688V3.876C20.4019 3.636 20.4859 3.432 20.6539 3.264C20.8219 3.088 21.0259 3 21.2659 3H22.9099C23.1499 3 23.3539 3.088 23.5219 3.264C23.6899 3.432 23.7739 3.636 23.7739 3.876V4.872H22.6459V4.56C22.6459 4.44 22.6019 4.34 22.5139 4.26C22.4339 4.172 22.3339 4.128 22.2139 4.128H21.9619C21.8419 4.128 21.7379 4.172 21.6499 4.26C21.5619 4.34 21.5179 4.44 21.5179 4.56V5.004C21.5179 5.124 21.5619 5.228 21.6499 5.316C21.7379 5.396 21.8419 5.436 21.9619 5.436H22.9099C23.1499 5.436 23.3539 5.524 23.5219 5.7C23.6899 5.868 23.7739 6.072 23.7739 6.312V8.172C23.7659 8.396 23.6779 8.592 23.5099 8.76C23.3419 8.92 23.1419 9 22.9099 9H21.2659ZM24.5034 9V0.263999L25.6314 0.0119998V3H27.0594L26.7954 4.128H25.6314V9H24.5034ZM28.2854 9C28.0454 9 27.8414 8.916 27.6734 8.748C27.5054 8.572 27.4214 8.364 27.4214 8.124V7.128H28.5374V7.44C28.5374 7.56 28.5814 7.664 28.6694 7.752C28.7574 7.832 28.8614 7.872 28.9814 7.872H29.2334C29.3534 7.872 29.4534 7.832 29.5334 7.752C29.6214 7.664 29.6654 7.56 29.6654 7.44V6.996C29.6654 6.876 29.6214 6.776 29.5334 6.696C29.4534 6.608 29.3534 6.564 29.2334 6.564H28.2854C28.0454 6.564 27.8414 6.48 27.6734 6.312C27.5054 6.136 27.4214 5.928 27.4214 5.688V3.876C27.4214 3.636 27.5054 3.432 27.6734 3.264C27.8414 3.088 28.0454 3 28.2854 3H29.9294C30.1694 3 30.3734 3.088 30.5414 3.264C30.7094 3.432 30.7934 3.636 30.7934 3.876V4.872H29.6654V4.56C29.6654 4.44 29.6214 4.34 29.5334 4.26C29.4534 4.172 29.3534 4.128 29.2334 4.128H28.9814C28.8614 4.128 28.7574 4.172 28.6694 4.26C28.5814 4.34 28.5374 4.44 28.5374 4.56V5.004C28.5374 5.124 28.5814 5.228 28.6694 5.316C28.7574 5.396 28.8614 5.436 28.9814 5.436H29.9294C30.1694 5.436 30.3734 5.524 30.5414 5.7C30.7094 5.868 30.7934 6.072 30.7934 6.312V8.172C30.7854 8.396 30.6974 8.592 30.5294 8.76C30.3614 8.92 30.1614 9 29.9294 9H28.2854Z" fill="#FFD540"/>
</svg>
